# xmcd
#
# Track frame offsets:
#	150
#	14121
#	24824
#	39433
#	52450
#	64813
#	78374
#	91749
#	105197
#	120707
#	132594
#	145760
#	160153
#	172245
#	187280
#	198610
#
# Disc length: 2869 seconds
#
# Revision: 1
# Processed by: cddbd v1.5.2PL0 Copyright (c) Steve Scherf et al.
# Submitted via: audiograbber 1.83.01
#
DISCID=e50b3310
DTITLE=Django Reinhardt - Nuages [CD 2)
DYEAR=1900
DGENRE=Swing
TTITLE0=Topsy
TTITLE1=Moppin' the Bride
TTITLE2=Insensiblement
TTITLE3=Mano
TTITLE4=Blues Primitif
TTITLE5=Gipsy with a Song
TTITLE6=Night and Day (1st Version)
TTITLE7=Confessin' that I love you (1st Version)
TTITLE8=Blues for Ike
TTITLE9=September Song (2nd Version)
TTITLE10=Night and Day (2nd Version)
TTITLE11=Insensiblement (2nd Version)
TTITLE12=Manoir de mes reves
TTITLE13=Nuages
TTITLE14=Brasil
TTITLE15=Confessin' that Iove you (2nd Version)
EXTD=
EXTT0=
EXTT1=
EXTT2=
EXTT3=
EXTT4=
EXTT5=
EXTT6=
EXTT7=
EXTT8=
EXTT9=
EXTT10=
EXTT11=
EXTT12=
EXTT13=
EXTT14=
EXTT15=
PLAYORDER=
